<?xml version="1.0" encoding="UTF-8" standalone="no"?>
<svg width="400" height="400" viewBox="0 0 400 400" xmlns="http://www.w3.org/2000/svg">
  <!-- Background -->
  <rect width="400" height="400" fill="white"/>
  
  <!-- Outer circle -->
  <circle cx="200" cy="200" r="180" fill="white" stroke="#e0e0e0" stroke-width="2"/>
  
  <!-- Scatter plots emanating from center -->
  <!-- Symmetric time series emanating from center -->
  <!-- Time Series 1 - Top-left (Blue) -->
  <path d="M200,200 L180,180 L160,170 L140,150 L120,130 L100,100" 
        stroke="#3a86ff" stroke-width="2" stroke-opacity="0.7" fill="none"/>
  <circle cx="180" cy="180" r="4" fill="#3a86ff"/>
  <circle cx="160" cy="170" r="4" fill="#3a86ff"/>
  <circle cx="140" cy="150" r="4" fill="#3a86ff"/>
  <circle cx="120" cy="130" r="4" fill="#3a86ff"/>
  <circle cx="100" cy="100" r="4" fill="#3a86ff"/>
  
  <!-- Time Series 2 - Top-right (Red) -->
  <path d="M200,200 L220,180 L240,170 L260,150 L280,130 L300,100" 
        stroke="#ff006e" stroke-width="2" stroke-opacity="0.7" fill="none"/>
  <circle cx="220" cy="180" r="4" fill="#ff006e"/>
  <circle cx="240" cy="170" r="4" fill="#ff006e"/>
  <circle cx="260" cy="150" r="4" fill="#ff006e"/>
  <circle cx="280" cy="130" r="4" fill="#ff006e"/>
  <circle cx="300" cy="100" r="4" fill="#ff006e"/>
  
  <!-- Time Series 3 - Bottom-left (Purple) -->
  <path d="M200,200 L180,220 L160,230 L140,250 L120,270 L100,300" 
        stroke="#8338ec" stroke-width="2" stroke-opacity="0.7" fill="none"/>
  <circle cx="180" cy="220" r="4" fill="#8338ec"/>
  <circle cx="160" cy="230" r="4" fill="#8338ec"/>
  <circle cx="140" cy="250" r="4" fill="#8338ec"/>
  <circle cx="120" cy="270" r="4" fill="#8338ec"/>
  <circle cx="100" cy="300" r="4" fill="#8338ec"/>
  
  <!-- Time Series 4 - Bottom-right (Green) -->
  <path d="M200,200 L220,220 L240,230 L260,250 L280,270 L300,300" 
        stroke="#38b000" stroke-width="2" stroke-opacity="0.7" fill="none"/>
  <circle cx="220" cy="220" r="4" fill="#38b000"/>
  <circle cx="240" cy="230" r="4" fill="#38b000"/>
  <circle cx="260" cy="250" r="4" fill="#38b000"/>
  <circle cx="280" cy="270" r="4" fill="#38b000"/>
  <circle cx="300" cy="300" r="4" fill="#38b000"/>
  
  <!-- Time Series 5 - Right (Yellow) -->
  <path d="M200,200 L230,200 L260,190 L290,210 L320,190 L350,200" 
        stroke="#ffbe0b" stroke-width="2" stroke-opacity="0.7" fill="none"/>
  <circle cx="230" cy="200" r="4" fill="#ffbe0b"/>
  <circle cx="260" cy="190" r="4" fill="#ffbe0b"/>
  <circle cx="290" cy="210" r="4" fill="#ffbe0b"/>
  <circle cx="320" cy="190" r="4" fill="#ffbe0b"/>
  <circle cx="350" cy="200" r="4" fill="#ffbe0b"/>
  
  <!-- Time Series 6 - Left (Cyan) -->
  <path d="M200,200 L170,200 L140,210 L110,190 L80,210 L50,200" 
        stroke="#3a86ff" stroke-width="2" stroke-opacity="0.7" fill="none"/>
  <circle cx="170" cy="200" r="4" fill="#3a86ff"/>
  <circle cx="140" cy="210" r="4" fill="#3a86ff"/>
  <circle cx="110" cy="190" r="4" fill="#3a86ff"/>
  <circle cx="80" cy="210" r="4" fill="#3a86ff"/>
  <circle cx="50" cy="200" r="4" fill="#3a86ff"/>
  
  <!-- Time Series 7 - Top (Pink) -->
  <path d="M200,200 L200,170 L190,140 L210,110 L190,80 L200,50" 
        stroke="#ff006e" stroke-width="2" stroke-opacity="0.7" fill="none"/>
  <circle cx="200" cy="170" r="4" fill="#ff006e"/>
  <circle cx="190" cy="140" r="4" fill="#ff006e"/>
  <circle cx="210" cy="110" r="4" fill="#ff006e"/>
  <circle cx="190" cy="80" r="4" fill="#ff006e"/>
  <circle cx="200" cy="50" r="4" fill="#ff006e"/>
  
  <!-- Time Series 8 - Bottom (Orange) -->
  <path d="M200,200 L200,230 L210,260 L190,290 L210,320 L200,350" 
        stroke="#fb5607" stroke-width="2" stroke-opacity="0.7" fill="none"/>
  <circle cx="200" cy="230" r="4" fill="#fb5607"/>
  <circle cx="210" cy="260" r="4" fill="#fb5607"/>
  <circle cx="190" cy="290" r="4" fill="#fb5607"/>
  <circle cx="210" cy="320" r="4" fill="#fb5607"/>
  <circle cx="200" cy="350" r="4" fill="#fb5607"/>
  
  <!-- Central gear -->
  <g transform="translate(200, 200)">
    <!-- Gear teeth -->
    <path d="M-18,-70 L18,-70 L25,-45 L-25,-45 Z" fill="#333333" transform="rotate(0)"/>
    <path d="M-18,-70 L18,-70 L25,-45 L-25,-45 Z" fill="#333333" transform="rotate(30)"/>
    <path d="M-18,-70 L18,-70 L25,-45 L-25,-45 Z" fill="#333333" transform="rotate(60)"/>
    <path d="M-18,-70 L18,-70 L25,-45 L-25,-45 Z" fill="#333333" transform="rotate(90)"/>
    <path d="M-18,-70 L18,-70 L25,-45 L-25,-45 Z" fill="#333333" transform="rotate(120)"/>
    <path d="M-18,-70 L18,-70 L25,-45 L-25,-45 Z" fill="#333333" transform="rotate(150)"/>
    <path d="M-18,-70 L18,-70 L25,-45 L-25,-45 Z" fill="#333333" transform="rotate(180)"/>
    <path d="M-18,-70 L18,-70 L25,-45 L-25,-45 Z" fill="#333333" transform="rotate(210)"/>
    <path d="M-18,-70 L18,-70 L25,-45 L-25,-45 Z" fill="#333333" transform="rotate(240)"/>
    <path d="M-18,-70 L18,-70 L25,-45 L-25,-45 Z" fill="#333333" transform="rotate(270)"/>
    <path d="M-18,-70 L18,-70 L25,-45 L-25,-45 Z" fill="#333333" transform="rotate(300)"/>
    <path d="M-18,-70 L18,-70 L25,-45 L-25,-45 Z" fill="#333333" transform="rotate(330)"/>
    
    <!-- Gear body -->
    <circle cx="0" cy="0" r="45" fill="#333333"/>
    <circle cx="0" cy="0" r="18" fill="white"/>
  </g>
</svg>
